mtllib model_1.mtl
o model_1
v 0.36601659655570984 0.9877995848655701 11.001426696777344 
v 0.9877995848655701 0.36601659655570984 11.001426696777344 
v 0.6423646211624146 0.6423646211624146 11.001426696777344 
v 0.9187126159667969 0.9187126159667969 10.817743301391602 
v 0.5732775926589966 1.3055998086929321 10.80211067199707 
v 0.697634220123291 1.5404956340789795 10.419111251831055 
v 0.2554773986339569 1.6924870014190674 10.419111251831055 
v 0.20020779967308044 1.4437737464904785 10.80211067199707 
v 1.1536084413528442 1.1536084413528442 10.407386779785156 
v 1.3055998086929321 0.5732775926589966 10.80211067199707 
v 1.0707039833068848 0.14493820071220398 11.001426696777344 
v -1.0709929466247559 0.14493820071220398 11.001426696777344 
v -0.14522719383239746 1.0707039833068848 11.001426696777344 
v 0.14493820071220398 1.0707039833068848 11.001426696777344 
v -0.20049679279327393 1.4437737464904785 10.80211067199707 
v -0.2557663917541504 1.6924870014190674 10.419111251831055 
v -0.2695837914943695 1.8306610584259033 9.989212989807129 
v 0.269294798374176 1.8306610584259033 9.989212989807129 
v 0.269294798374176 1.8306610584259033 7.999959945678711 
v 0.7667211890220642 1.6510348320007324 7.999959945678711 
v 0.7667211890220642 1.6510348320007324 9.989212989807129 
v -0.2695837914943695 1.8306610584259033 7.999959945678711 
v -0.7670102119445801 1.6510348320007324 9.989212989807129 
v -0.7670102119445801 1.6510348320007324 7.999959945678711 
v -0.6979231834411621 1.5404956340789795 10.419111251831055 
v -0.5735666155815125 1.3055998086929321 10.80211067199707 
v -0.3663055896759033 0.9877995848655701 11.001426696777344 
v -0.6426535844802856 0.6423646211624146 11.001426696777344 
v -0.919001579284668 0.9187126159667969 10.817743301391602 
v -1.1538974046707153 1.1536084413528442 10.407386779785156 
v -1.2644366025924683 1.2641476392745972 9.989212989807129 
v -1.2644366025924683 1.2641476392745972 7.999959945678711 
v -1.6513237953186035 0.7667211890220642 9.989212989807129 
v -1.6513237953186035 0.7667211890220642 7.999959945678711 
v -0.9880886077880859 0.36601659655570984 11.001426696777344 
v -1.4440628290176392 0.20020779967308044 10.80211067199707 
v -1.3058887720108032 0.5732775926589966 10.80211067199707 
v -1.6927759647369385 0.2554773986339569 10.419111251831055 
v -1.5407845973968506 0.697634220123291 10.419111251831055 
v -1.8309500217437744 0.269294798374176 9.989212989807129 
v -1.8309500217437744 0.269294798374176 7.999959945678711 
v -1.8309500217437744 -0.2695837914943695 9.989212989807129 
v -1.8309500217437744 -0.2695837914943695 7.999959945678711 
v -1.6927759647369385 -0.2557663917541504 10.419111251831055 
v -1.4440628290176392 -0.20049679279327393 10.80211067199707 
v -1.0709929466247559 -0.14522719383239746 11.001426696777344 
v 1.0707039833068848 -0.14522719383239746 11.001426696777344 
v 1.4437737464904785 0.20020779967308044 10.80211067199707 
v 1.5404956340789795 0.697634220123291 10.419111251831055 
v 1.2641476392745972 1.2641476392745972 9.989212989807129 
v 1.2641476392745972 1.2641476392745972 7.999959945678711 
v 1.6510348320007324 0.7667211890220642 7.999959945678711 
v 1.6510348320007324 0.7667211890220642 9.989212989807129 
v 1.8306610584259033 0.269294798374176 7.999959945678711 
v 1.8306610584259033 0.269294798374176 9.989212989807129 
v 1.8306610584259033 -0.2695837914943695 7.999959945678711 
v 1.8306610584259033 -0.2695837914943695 9.989212989807129 
v 1.6510348320007324 -0.7670102119445801 7.999959945678711 
v 1.6510348320007324 -0.7670102119445801 9.989212989807129 
v 1.2641476392745972 -1.2644366025924683 7.999959945678711 
v 1.2641476392745972 -1.2644366025924683 9.989212989807129 
v 0.7667211890220642 -1.6513237953186035 7.999959945678711 
v 0.7667211890220642 -1.6513237953186035 9.989212989807129 
v 0.269294798374176 -1.8309500217437744 7.999959945678711 
v 0.269294798374176 -1.8309500217437744 9.989212989807129 
v -0.2695837914943695 -1.8309500217437744 7.999959945678711 
v -0.2695837914943695 -1.8309500217437744 9.989212989807129 
v -0.7670102119445801 -1.6513237953186035 7.999959945678711 
v -0.7670102119445801 -1.6513237953186035 9.989212989807129 
v -1.2644366025924683 -1.2644366025924683 7.999959945678711 
v -1.2644366025924683 -1.2644366025924683 9.989212989807129 
v -1.6513237953186035 -0.7670102119445801 7.999959945678711 
v -1.6513237953186035 -0.7670102119445801 9.989212989807129 
v -1.5407845973968506 -0.6979231834411621 10.419111251831055 
v -1.3058887720108032 -0.5735666155815125 10.80211067199707 
v -0.9880886077880859 -0.3663055896759033 11.001426696777344 
v -1.1538974046707153 -1.1538974046707153 10.407386779785156 
v -0.6979231834411621 -1.5407845973968506 10.419111251831055 
v -0.2557663917541504 -1.6927759647369385 10.419111251831055 
v -0.919001579284668 -0.919001579284668 10.817743301391602 
v -0.6426535844802856 -0.6426535844802856 11.001426696777344 
v -0.3663055896759033 -0.9880886077880859 11.001426696777344 
v -0.5735666155815125 -1.3058887720108032 10.80211067199707 
v -0.20049679279327393 -1.4440628290176392 10.80211067199707 
v 0.2554773986339569 -1.6927759647369385 10.419111251831055 
v 0.697634220123291 -1.5407845973968506 10.419111251831055 
v 0.14493820071220398 -1.0709929466247559 11.001426696777344 
v -0.14522719383239746 -1.0709929466247559 11.001426696777344 
v 0.20020779967308044 -1.4440628290176392 10.80211067199707 
v 0.5732775926589966 -1.3058887720108032 10.80211067199707 
v 1.1536084413528442 -1.1538974046707153 10.407386779785156 
v 1.5404956340789795 -0.6979231834411621 10.419111251831055 
v 0.36601659655570984 -0.9880886077880859 11.001426696777344 
v 0.9187126159667969 -0.919001579284668 10.817743301391602 
v 0.6423646211624146 -0.6426535844802856 11.001426696777344 
v 1.3055998086929321 -0.5735666155815125 10.80211067199707 
v 1.6924870014190674 -0.2557663917541504 10.419111251831055 
v 1.6924870014190674 0.2554773986339569 10.419111251831055 
v 1.4437737464904785 -0.20049679279327393 10.80211067199707 
v 0.9877995848655701 -0.3663055896759033 11.001426696777344 
vn 0.16010190546512604 0.22483165562152863 0.961154580116272 
vn 0.22250203788280487 0.14867110550403595 0.9635298252105713 
vn 0.6730244755744934 0.7090826034545898 -0.2103329300880432 
vn 0.4254496991634369 0.4507470726966858 0.7847417593002319 
vn 0.3787339925765991 0.5680876970291138 0.7306414246559143 
vn 0.4551714360713959 0.7758044004440308 0.43697428703308105 
vn 0.1576748937368393 0.88938969373703 0.42909738421440125 
vn 0.11635347455739975 0.6695274114608765 0.7336177229881287 
vn 0.6084325909614563 0.6351221203804016 0.4758462607860565 
vn 0.5741094946861267 0.3575587570667267 0.736579954624176 
vn 0.2595307230949402 0.044913556426763535 0.9646899104118347 
vn -0.2595307230949402 0.044913556426763535 0.9646899104118347 
vn -0.044913556426763535 0.2595307230949402 0.9646899104118347 
vn 0.044913556426763535 0.2595307230949402 0.9646899104118347 
vn -0.11635347455739975 0.6695274114608765 0.7336177229881287 
vn -0.1576748937368393 0.88938969373703 0.42909738421440125 
vn -0.16518372297286987 0.9754185676574707 0.1458524912595749 
vn 0.16518372297286987 0.9754185676574707 0.1458524912595749 
vn 0.17282135784626007 0.9849507808685303 0.002184694167226553 
vn 0.47804227471351624 0.878334105014801 0.002184694167226553 
vn 0.47569501399993896 0.8666960597038269 0.15017375349998474 
vn -0.17282135784626007 0.9849507808685303 0.002184694167226553 
vn -0.47050854563713074 0.8702578544616699 0.1458524912595749 
vn -0.47804227471351624 0.878334105014801 0.002184694167226553 
vn -0.44195157289505005 0.785592257976532 0.43303996324539185 
vn -0.3575587570667267 0.5741094946861267 0.736579954624176 
vn -0.14867110550403595 0.22250203788280487 0.9635298252105713 
vn -0.14918595552444458 0.14522182941436768 0.9780870079994202 
vn -0.44945234060287476 0.42681723833084106 0.7847417593002319 
vn -0.6351221203804016 0.6084325909614563 0.4758462607860565 
vn -0.7036164999008179 0.6916037201881409 0.16312000155448914 
vn -0.7071051001548767 0.7071051001548767 0.002184694167226553 
vn -0.8676024079322815 0.4740399420261383 0.15017375349998474 
vn -0.878334105014801 0.47804227471351624 0.002184694167226553 
vn -0.22151903808116913 0.16465482115745544 0.961154580116272 
vn -0.6701629161834717 0.11263547837734222 0.7336177229881287 
vn -0.5670400261878967 0.3803008198738098 0.7306414246559143 
vn -0.88938969373703 0.1576748937368393 0.42909738421440125 
vn -0.7748481035232544 0.45679745078086853 0.43697428703308105 
vn -0.9754185676574707 0.16518372297286987 0.1458524912595749 
vn -0.9849507808685303 0.17282135784626007 0.002184694167226553 
vn -0.9754185676574707 -0.16518372297286987 0.1458524912595749 
vn -0.9849507808685303 -0.17282135784626007 0.002184694167226553 
vn -0.88938969373703 -0.1576748937368393 0.42909738421440125 
vn -0.668871283531189 -0.12006788700819016 0.7336177229881287 
vn -0.2595307230949402 -0.044913556426763535 0.9646899104118347 
vn 0.2595307230949402 -0.044913556426763535 0.9646899104118347 
vn 0.668871283531189 0.12006788700819016 0.7336177229881287 
vn 0.786514937877655 0.44030746817588806 0.43303996324539185 
vn 0.6956309676170349 0.6996352076530457 0.16312000155448914 
vn 0.7071051001548767 0.7071051001548767 0.002184694167226553 
vn 0.878334105014801 0.47804227471351624 0.002184694167226553 
vn 0.8702578544616699 0.47050854563713074 0.1458524912595749 
vn 0.9849507808685303 0.17282135784626007 0.002184694167226553 
vn 0.9754185676574707 0.16518372297286987 0.1458524912595749 
vn 0.9849507808685303 -0.17282135784626007 0.002184694167226553 
vn 0.9754185676574707 -0.16518372297286987 0.1458524912595749 
vn 0.878334105014801 -0.47804227471351624 0.002184694167226553 
vn 0.865786612033844 -0.47734832763671875 0.15017375349998474 
vn 0.7071051001548767 -0.7071051001548767 0.002184694167226553 
vn 0.7009648680686951 -0.6942910552024841 0.16312000155448914 
vn 0.47804227471351624 -0.878334105014801 0.002184694167226553 
vn 0.47050854563713074 -0.8702578544616699 0.1458524912595749 
vn 0.17282135784626007 -0.9849507808685303 0.002184694167226553 
vn 0.16518372297286987 -0.9754185676574707 0.1458524912595749 
vn -0.17282135784626007 -0.9849507808685303 0.002184694167226553 
vn -0.16518372297286987 -0.9754185676574707 0.1458524912595749 
vn -0.47804227471351624 -0.878334105014801 0.002184694167226553 
vn -0.47899991273880005 -0.8648739457130432 0.15017375349998474 
vn -0.7071051001548767 -0.7071051001548767 0.002184694167226553 
vn -0.6929486393928528 -0.7022919654846191 0.16312000155448914 
vn -0.878334105014801 -0.47804227471351624 0.002184694167226553 
vn -0.8702578544616699 -0.47050854563713074 0.1458524912595749 
vn -0.784666121006012 -0.44359374046325684 0.43303996324539185 
vn -0.5741094946861267 -0.3575587570667267 0.736579954624176 
vn -0.22250203788280487 -0.14867110550403595 0.9635298252105713 
vn -0.6084325909614563 -0.6351221203804016 0.4758462607860565 
vn -0.4584214389324188 -0.7738884091377258 0.43697428703308105 
vn -0.1576748937368393 -0.88938969373703 0.42909738421440125 
vn -0.4227028489112854 -0.45332399010658264 0.7847417593002319 
vn -0.6702793836593628 -0.7116779685020447 -0.2103329300880432 
vn -0.16314470767974854 -0.22263355553150177 0.961154580116272 
vn -0.3818647563457489 -0.5659880042076111 0.7306414246559143 
vn -0.11635347455739975 -0.6695274114608765 0.7336177229881287 
vn 0.1576748937368393 -0.88938969373703 0.42909738421440125 
vn 0.4386614263057709 -0.7874341607093811 0.43303996324539185 
vn 0.044913556426763535 -0.2595307230949402 0.9646899104118347 
vn -0.044913556426763535 -0.2595307230949402 0.9646899104118347 
vn 0.11635347455739975 -0.6695274114608765 0.7336177229881287 
vn 0.3575587570667267 -0.5741094946861267 0.736579954624176 
vn 0.6351221203804016 -0.6084325909614563 0.4758462607860565 
vn 0.7767572402954102 -0.45354342460632324 0.43697428703308105 
vn 0.14867110550403595 -0.22250203788280487 0.9635298252105713 
vn 0.45203763246536255 -0.42407822608947754 0.7847417593002319 
vn 0.15176880359649658 -0.14252038300037384 0.9780870079994202 
vn 0.5649316310882568 -0.383425772190094 0.7306414246559143 
vn 0.88938969373703 -0.1576748937368393 0.42909738421440125 
vn 0.88938969373703 0.1576748937368393 0.42909738421440125 
vn 0.6701629161834717 -0.11263547837734222 0.7336177229881287 
vn 0.22373777627944946 -0.16162703931331635 0.961154580116272 
s on 
f 1//1 2//2 3//3 
f 2//2 4//4 3//3 
f 3//3 4//4 5//5 
f 4//4 6//6 5//5 
f 5//5 6//6 5//5 
f 6//6 7//7 5//5 
f 5//5 7//7 5//5 
f 7//7 8//8 5//5 
f 5//5 8//8 5//5 
f 8//8 1//1 5//5 
f 5//5 1//1 3//3 
f 1//1 3//3 3//3 
f 3//3 3//3 6//6 
f 3//3 6//6 6//6 
f 6//6 6//6 9//9 
f 6//6 4//4 9//9 
f 9//9 4//4 10//10 
f 4//4 2//2 10//10 
f 10//10 2//2 11//11 
f 2//2 2//2 11//11 
f 11//11 2//2 12//12 
f 2//2 1//1 12//12 
f 12//12 1//1 13//13 
f 1//1 14//14 13//13 
f 13//13 14//14 15//15 
f 14//14 8//8 15//15 
f 15//15 8//8 16//16 
f 8//8 7//7 16//16 
f 16//16 7//7 17//17 
f 7//7 18//18 17//17 
f 17//17 18//18 19//19 
f 18//18 18//18 19//19 
f 19//19 18//18 20//20 
f 18//18 18//18 20//20 
f 20//20 18//18 21//21 
f 18//18 6//6 21//21 
f 21//21 6//6 9//9 
f 6//6 9//9 9//9 
f 9//9 9//9 8//8 
f 9//9 8//8 8//8 
f 8//8 8//8 1//1 
f 8//8 14//14 1//1 
f 1//1 14//14 14//14 
f 14//14 18//18 14//14 
f 14//14 18//18 18//18 
f 18//18 7//7 18//18 
f 18//18 7//7 6//6 
f 7//7 6//6 6//6 
f 6//6 6//6 19//19 
f 6//6 19//19 19//19 
f 19//19 19//19 17//17 
f 19//19 22//22 17//17 
f 17//17 22//22 23//23 
f 22//22 24//24 23//23 
f 23//23 24//24 24//24 
f 24//24 17//17 24//24 
f 24//24 17//17 17//17 
f 17//17 23//23 17//17 
f 17//17 23//23 16//16 
f 23//23 25//25 16//16 
f 16//16 25//25 15//15 
f 25//25 26//26 15//15 
f 15//15 26//26 13//13 
f 26//26 27//27 13//13 
f 13//13 27//27 28//28 
f 27//27 27//27 28//28 
f 28//28 27//27 29//29 
f 27//27 26//26 29//29 
f 29//29 26//26 30//30 
f 26//26 25//25 30//30 
f 30//30 25//25 31//31 
f 25//25 23//23 31//31 
f 31//31 23//23 31//31 
f 23//23 24//24 31//31 
f 31//31 24//24 31//31 
f 24//24 32//32 31//31 
f 31//31 32//32 33//33 
f 32//32 34//34 33//33 
f 33//33 34//34 34//34 
f 34//34 13//13 34//34 
f 34//34 13//13 13//13 
f 13//13 28//28 13//13 
f 13//13 28//28 12//12 
f 28//28 35//35 12//12 
f 12//12 35//35 36//36 
f 35//35 37//37 36//36 
f 36//36 37//37 38//38 
f 37//37 39//39 38//38 
f 38//38 39//39 40//40 
f 39//39 33//33 40//40 
f 40//40 33//33 40//40 
f 33//33 34//34 40//40 
f 40//40 34//34 40//40 
f 34//34 41//41 40//40 
f 40//40 41//41 40//40 
f 41//41 42//42 40//40 
f 40//40 42//42 38//38 
f 42//42 38//38 38//38 
f 38//38 38//38 31//31 
f 38//38 31//31 31//31 
f 31//31 31//31 30//30 
f 31//31 33//33 30//30 
f 30//30 33//33 30//30 
f 33//33 39//39 30//30 
f 30//30 39//39 29//29 
f 39//39 37//37 29//29 
f 29//29 37//37 28//28 
f 37//37 35//35 28//28 
f 28//28 35//35 35//35 
f 35//35 41//41 35//35 
f 35//35 41//41 41//41 
f 41//41 43//43 41//41 
f 41//41 43//43 42//42 
f 43//43 42//42 42//42 
f 42//42 42//42 42//42 
f 42//42 42//42 42//42 
f 42//42 42//42 38//38 
f 42//42 44//44 38//38 
f 38//38 44//44 36//36 
f 44//44 45//45 36//36 
f 36//36 45//45 12//12 
f 45//45 46//46 12//12 
f 12//12 46//46 12//12 
f 46//46 47//47 12//12 
f 12//12 47//47 11//11 
f 47//47 48//48 11//11 
f 11//11 48//48 10//10 
f 48//48 49//49 10//10 
f 10//10 49//49 9//9 
f 49//49 50//50 9//9 
f 9//9 50//50 21//21 
f 50//50 51//51 21//21 
f 21//21 51//51 20//20 
f 51//51 20//20 20//20 
f 20//20 20//20 51//51 
f 20//20 51//51 51//51 
f 51//51 51//51 52//52 
f 51//51 50//50 52//52 
f 52//52 50//50 53//53 
f 50//50 49//49 53//53 
f 53//53 49//49 49//49 
f 49//49 52//52 49//49 
f 49//49 52//52 52//52 
f 52//52 53//53 52//52 
f 52//52 53//53 54//54 
f 53//53 55//55 54//54 
f 54//54 55//55 56//56 
f 55//55 57//57 56//56 
f 56//56 57//57 58//58 
f 57//57 59//59 58//58 
f 58//58 59//59 60//60 
f 59//59 61//61 60//60 
f 60//60 61//61 62//62 
f 61//61 63//63 62//62 
f 62//62 63//63 64//64 
f 63//63 65//65 64//64 
f 64//64 65//65 66//66 
f 65//65 67//67 66//66 
f 66//66 67//67 68//68 
f 67//67 69//69 68//68 
f 68//68 69//69 70//70 
f 69//69 71//71 70//70 
f 70//70 71//71 72//72 
f 71//71 73//73 72//72 
f 72//72 73//73 43//43 
f 73//73 73//73 43//43 
f 43//43 73//73 42//42 
f 73//73 73//73 42//42 
f 42//42 73//73 44//44 
f 73//73 74//74 44//44 
f 44//44 74//74 45//45 
f 74//74 75//75 45//45 
f 45//45 75//75 46//46 
f 75//75 76//76 46//46 
f 46//46 76//76 47//47 
f 76//76 47//47 47//47 
f 47//47 47//47 73//73 
f 47//47 73//73 73//73 
f 73//73 73//73 74//74 
f 73//73 71//71 74//74 
f 74//74 71//71 77//77 
f 71//71 69//69 77//77 
f 77//77 69//69 78//78 
f 69//69 67//67 78//78 
f 78//78 67//67 79//79 
f 67//67 65//65 79//79 
f 79//79 65//65 65//65 
f 65//65 74//74 65//65 
f 65//65 74//74 74//74 
f 74//74 77//77 74//74 
f 74//74 77//77 75//75 
f 77//77 80//80 75//75 
f 75//75 80//80 76//76 
f 80//80 81//81 76//76 
f 76//76 81//81 82//82 
f 81//81 83//83 82//82 
f 82//82 83//83 84//84 
f 83//83 79//79 84//84 
f 84//84 79//79 85//85 
f 79//79 65//65 85//85 
f 85//85 65//65 85//85 
f 65//65 63//63 85//85 
f 85//85 63//63 86//86 
f 63//63 61//61 86//86 
f 86//86 61//61 61//61 
f 61//61 77//77 61//61 
f 61//61 77//77 77//77 
f 77//77 78//78 77//77 
f 77//77 78//78 80//80 
f 78//78 83//83 80//80 
f 80//80 83//83 81//81 
f 83//83 81//81 81//81 
f 81//81 81//81 83//83 
f 81//81 83//83 83//83 
f 83//83 83//83 79//79 
f 83//83 78//78 79//79 
f 79//79 78//78 78//78 
f 78//78 76//76 78//78 
f 78//78 76//76 76//76 
f 76//76 82//82 76//76 
f 76//76 82//82 47//47 
f 82//82 82//82 47//47 
f 47//47 82//82 87//87 
f 82//82 88//88 87//87 
f 87//87 88//88 89//89 
f 88//88 84//84 89//89 
f 89//89 84//84 89//89 
f 84//84 85//85 89//89 
f 89//89 85//85 89//89 
f 85//85 86//86 89//89 
f 89//89 86//86 90//90 
f 86//86 86//86 90//90 
f 90//90 86//86 91//91 
f 86//86 61//61 91//91 
f 91//91 61//61 91//91 
f 61//61 59//59 91//91 
f 91//91 59//59 92//92 
f 59//59 57//57 92//92 
f 92//92 57//57 57//57 
f 57//57 84//84 57//57 
f 57//57 84//84 84//84 
f 84//84 88//88 84//84 
f 84//84 88//88 82//82 
f 88//88 82//82 82//82 
f 82//82 82//82 89//89 
f 82//82 89//89 89//89 
f 89//89 89//89 87//87 
f 89//89 90//90 87//87 
f 87//87 90//90 93//93 
f 90//90 94//94 93//93 
f 93//93 94//94 95//95 
f 94//94 94//94 95//95 
f 95//95 94//94 96//96 
f 94//94 92//92 96//96 
f 96//96 92//92 97//97 
f 92//92 57//57 97//97 
f 97//97 57//57 97//97 
f 57//57 55//55 97//97 
f 97//97 55//55 98//98 
f 55//55 53//53 98//98 
f 98//98 53//53 98//98 
f 53//53 49//49 98//98 
f 98//98 49//49 98//98 
f 49//49 48//48 98//98 
f 98//98 48//48 99//99 
f 48//48 47//47 99//99 
f 99//99 47//47 99//99 
f 47//47 100//100 99//99 
f 99//99 100//100 99//99 
f 100//100 96//96 99//99 
f 99//99 96//96 99//99 
f 96//96 97//97 99//99 
f 99//99 97//97 98//98 
f 97//97 98//98 98//98 
f 98//98 98//98 92//92 
f 98//98 92//92 92//92 
f 92//92 92//92 91//91 
f 92//92 94//94 91//91 
f 91//91 94//94 90//90 
f 94//94 90//90 90//90 
f 90//90 90//90 93//93 
f 90//90 93//93 93//93 
f 93//93 93//93 87//87 
f 93//93 95//95 87//87 
f 87//87 95//95 47//47 
f 95//95 95//95 47//47 
f 47//47 95//95 100//100 
f 95//95 96//96 100//100 

