mtllib model_4.mtl
o model_4
v 122.62565612792969 19.424270629882812 37.03978729248047 
v 122.62565612792969 19.424270629882812 -13.14534854888916 
v 73.11630249023438 19.424270629882812 37.03978729248047 
v 73.11630249023438 19.424270629882812 -13.14534854888916 
v 122.62565612792969 12.079790115356445 37.03978729248047 
v 122.62565612792969 19.424270629882812 37.03978729248047 
v 73.11630249023438 12.079790115356445 37.03978729248047 
v 73.11630249023438 19.424270629882812 37.03978729248047 
v 122.62565612792969 12.079790115356445 -13.14534854888916 
v 122.62565612792969 19.424270629882812 -13.14534854888916 
v 122.62565612792969 12.079790115356445 37.03978729248047 
v 122.62565612792969 19.424270629882812 37.03978729248047 
v 73.11630249023438 12.079790115356445 -13.14534854888916 
v 73.11630249023438 19.424270629882812 -13.14534854888916 
v 122.62565612792969 12.079790115356445 -13.14534854888916 
v 122.62565612792969 19.424270629882812 -13.14534854888916 
v 73.11630249023438 12.079790115356445 37.03978729248047 
v 73.11630249023438 19.424270629882812 37.03978729248047 
v 73.11630249023438 12.079790115356445 -13.14534854888916 
v 73.11630249023438 19.424270629882812 -13.14534854888916 
v 14.438536643981934 27.748014450073242 46.55765914916992 
v 14.438536643981934 27.748014450073242 26.656658172607422 
v -5.731942176818848 27.748014450073242 46.55765914916992 
v -5.731942176818848 27.748014450073242 26.656658172607422 
v 14.438536643981934 12.079790115356445 46.55765914916992 
v 14.438536643981934 27.748014450073242 46.55765914916992 
v -5.731942176818848 12.079790115356445 46.55765914916992 
v -5.731942176818848 27.748014450073242 46.55765914916992 
v 14.438536643981934 12.079790115356445 26.656658172607422 
v 14.438536643981934 27.748014450073242 26.656658172607422 
v 14.438536643981934 12.079790115356445 46.55765914916992 
v 14.438536643981934 27.748014450073242 46.55765914916992 
v -5.731942176818848 12.079790115356445 26.656658172607422 
v -5.731942176818848 27.748014450073242 26.656658172607422 
v 14.438536643981934 12.079790115356445 26.656658172607422 
v 14.438536643981934 27.748014450073242 26.656658172607422 
v -5.731942176818848 12.079790115356445 46.55765914916992 
v -5.731942176818848 27.748014450073242 46.55765914916992 
v -5.731942176818848 12.079790115356445 26.656658172607422 
v -5.731942176818848 27.748014450073242 26.656658172607422 
v -58.908653259277344 27.748014450073242 46.55765914916992 
v -58.908653259277344 27.748014450073242 26.656658172607422 
v -79.07913970947266 27.748014450073242 46.55765914916992 
v -79.07913970947266 27.748014450073242 26.656658172607422 
v -58.908653259277344 12.079790115356445 46.55765914916992 
v -58.908653259277344 27.748014450073242 46.55765914916992 
v -79.07913970947266 12.079790115356445 46.55765914916992 
v -79.07913970947266 27.748014450073242 46.55765914916992 
v -58.908653259277344 12.079790115356445 26.656658172607422 
v -58.908653259277344 27.748014450073242 26.656658172607422 
v -58.908653259277344 12.079790115356445 46.55765914916992 
v -58.908653259277344 27.748014450073242 46.55765914916992 
v -79.07913970947266 12.079790115356445 26.656658172607422 
v -79.07913970947266 27.748014450073242 26.656658172607422 
v -58.908653259277344 12.079790115356445 26.656658172607422 
v -58.908653259277344 27.748014450073242 26.656658172607422 
v -79.07913970947266 12.079790115356445 46.55765914916992 
v -79.07913970947266 27.748014450073242 46.55765914916992 
v -79.07913970947266 12.079790115356445 26.656658172607422 
v -79.07913970947266 27.748014450073242 26.656658172607422 
v -110.25170135498047 43.17142105102539 -63.33048629760742 
v -110.25170135498047 43.17142105102539 -7.95378303527832 
v 63.947898864746094 43.17142105102539 -63.33048629760742 
v 63.947898864746094 43.17142105102539 -7.95378303527832 
v -110.25170135498047 12.079790115356445 -63.33048629760742 
v -110.25170135498047 43.17142105102539 -63.33048629760742 
v 63.947898864746094 12.079790115356445 -63.33048629760742 
v 63.947898864746094 43.17142105102539 -63.33048629760742 
v -110.25170135498047 12.079790115356445 -7.95378303527832 
v -110.25170135498047 43.17142105102539 -7.95378303527832 
v -110.25170135498047 12.079790115356445 -63.33048629760742 
v -110.25170135498047 43.17142105102539 -63.33048629760742 
v 63.947898864746094 12.079790115356445 -7.95378303527832 
v 63.947898864746094 43.17142105102539 -7.95378303527832 
v -110.25170135498047 12.079790115356445 -7.95378303527832 
v -110.25170135498047 43.17142105102539 -7.95378303527832 
v 63.947898864746094 12.079790115356445 -63.33048629760742 
v 63.947898864746094 43.17142105102539 -63.33048629760742 
v 63.947898864746094 12.079790115356445 -7.95378303527832 
v 63.947898864746094 43.17142105102539 -7.95378303527832 
vn 0 1 2.2204500197172533e-16 
vn 0 1 2.2204500197172533e-16 
vn 0 1 2.2204500197172533e-16 
vn 0 1 2.2204500197172533e-16 
vn 3.097898456858039e-13 -0.002184694167226553 0.999997615814209 
vn 3.097898456858039e-13 -0.002184694167226553 0.999997615814209 
vn 3.097898456858039e-13 -0.002184694167226553 0.999997615814209 
vn 3.097898456858039e-13 -0.002184694167226553 0.999997615814209 
vn 0.999997615814209 0.002184694167226553 4.851004321232411e-19 
vn 0.999997615814209 0.002184694167226553 4.851004321232411e-19 
vn 0.999997615814209 0.002184694167226553 4.851004321232411e-19 
vn 0.999997615814209 0.002184694167226553 4.851004321232411e-19 
vn -1.0341130485562108e-13 0.002184694167226553 -0.999997615814209 
vn -1.0341130485562108e-13 0.002184694167226553 -0.999997615814209 
vn -1.0341130485562108e-13 0.002184694167226553 -0.999997615814209 
vn -1.0341130485562108e-13 0.002184694167226553 -0.999997615814209 
vn -0.999997615814209 0.002184694167226553 2.0682309760221979e-13 
vn -0.999997615814209 0.002184694167226553 2.0682309760221979e-13 
vn -0.999997615814209 0.002184694167226553 2.0682309760221979e-13 
vn -0.999997615814209 0.002184694167226553 2.0682309760221979e-13 
vn 0 1 2.2204500197172533e-16 
vn 0 1 2.2204500197172533e-16 
vn 0 1 2.2204500197172533e-16 
vn 0 1 2.2204500197172533e-16 
vn 3.097898456858039e-13 -0.002184694167226553 0.999997615814209 
vn 3.097898456858039e-13 -0.002184694167226553 0.999997615814209 
vn 3.097898456858039e-13 -0.002184694167226553 0.999997615814209 
vn 3.097898456858039e-13 -0.002184694167226553 0.999997615814209 
vn 0.999997615814209 0.002184694167226553 4.851004321232411e-19 
vn 0.999997615814209 0.002184694167226553 4.851004321232411e-19 
vn 0.999997615814209 0.002184694167226553 4.851004321232411e-19 
vn 0.999997615814209 0.002184694167226553 4.851004321232411e-19 
vn -1.0341130485562108e-13 0.002184694167226553 -0.999997615814209 
vn -1.0341130485562108e-13 0.002184694167226553 -0.999997615814209 
vn -1.0341130485562108e-13 0.002184694167226553 -0.999997615814209 
vn -1.0341130485562108e-13 0.002184694167226553 -0.999997615814209 
vn -0.999997615814209 0.002184694167226553 2.0682309760221979e-13 
vn -0.999997615814209 0.002184694167226553 2.0682309760221979e-13 
vn -0.999997615814209 0.002184694167226553 2.0682309760221979e-13 
vn -0.999997615814209 0.002184694167226553 2.0682309760221979e-13 
vn 0 1 2.2204500197172533e-16 
vn 0 1 2.2204500197172533e-16 
vn 0 1 2.2204500197172533e-16 
vn 0 1 2.2204500197172533e-16 
vn 3.097898456858039e-13 -0.002184694167226553 0.999997615814209 
vn 3.097898456858039e-13 -0.002184694167226553 0.999997615814209 
vn 3.097898456858039e-13 -0.002184694167226553 0.999997615814209 
vn 3.097898456858039e-13 -0.002184694167226553 0.999997615814209 
vn 0.999997615814209 0.002184694167226553 4.851004321232411e-19 
vn 0.999997615814209 0.002184694167226553 4.851004321232411e-19 
vn 0.999997615814209 0.002184694167226553 4.851004321232411e-19 
vn 0.999997615814209 0.002184694167226553 4.851004321232411e-19 
vn -1.0341130485562108e-13 0.002184694167226553 -0.999997615814209 
vn -1.0341130485562108e-13 0.002184694167226553 -0.999997615814209 
vn -1.0341130485562108e-13 0.002184694167226553 -0.999997615814209 
vn -1.0341130485562108e-13 0.002184694167226553 -0.999997615814209 
vn -0.999997615814209 0.002184694167226553 2.0682309760221979e-13 
vn -0.999997615814209 0.002184694167226553 2.0682309760221979e-13 
vn -0.999997615814209 0.002184694167226553 2.0682309760221979e-13 
vn -0.999997615814209 0.002184694167226553 2.0682309760221979e-13 
vn 0 1 2.2204500197172533e-16 
vn 0 1 2.2204500197172533e-16 
vn 0 1 2.2204500197172533e-16 
vn 0 1 2.2204500197172533e-16 
vn -1.0341130485562108e-13 -0.002184694167226553 -0.999997615814209 
vn -1.0341130485562108e-13 -0.002184694167226553 -0.999997615814209 
vn -1.0341130485562108e-13 -0.002184694167226553 -0.999997615814209 
vn -1.0341130485562108e-13 -0.002184694167226553 -0.999997615814209 
vn -0.999997615814209 0.002184694167226553 2.0682309760221979e-13 
vn -0.999997615814209 0.002184694167226553 2.0682309760221979e-13 
vn -0.999997615814209 0.002184694167226553 2.0682309760221979e-13 
vn -0.999997615814209 0.002184694167226553 2.0682309760221979e-13 
vn 3.097898456858039e-13 0.002184694167226553 0.999997615814209 
vn 3.097898456858039e-13 0.002184694167226553 0.999997615814209 
vn 3.097898456858039e-13 0.002184694167226553 0.999997615814209 
vn 3.097898456858039e-13 0.002184694167226553 0.999997615814209 
vn 0.999997615814209 0.002184694167226553 4.851004321232411e-19 
vn 0.999997615814209 0.002184694167226553 4.851004321232411e-19 
vn 0.999997615814209 0.002184694167226553 4.851004321232411e-19 
vn 0.999997615814209 0.002184694167226553 4.851004321232411e-19 
vt 2.875384569168091 1.7712352275848389 
vt 2.875384569168091 2.248185396194458 
vt 2.1832566261291504 1.7712352275848389 
vt 2.1832566261291504 2.248185396194458 
vt 2.875384569168091 -0.24898099899291992 
vt 2.875384569168091 -0.1591392159461975 
vt 2.1832566261291504 -0.24898099899291992 
vt 2.1832566261291504 -0.1591392159461975 
vt 2.2482073307037354 -0.24898099899291992 
vt 2.2482073307037354 -0.1591392159461975 
vt 1.7712199687957764 -0.24898099899291992 
vt 1.7712199687957764 -0.1591392159461975 
vt 1.8167585134506226 -0.24898099899291992 
vt 1.8167585134506226 -0.1591392159461975 
vt 1.1246304512023926 -0.24898099899291992 
vt 1.1246304512023926 -0.1591392159461975 
vt 2.228795051574707 -0.24898099899291992 
vt 2.228795051574707 -0.1591392159461975 
vt 1.751807689666748 -0.24898099899291992 
vt 1.751807689666748 -0.1591392159461975 
vt 1.3552424907684326 1.6777671575546265 
vt 1.3552424907684326 1.8705053329467773 
vt 1.062598705291748 1.6777671575546265 
vt 1.062598705291748 1.8705053329467773 
vt 1.3552424907684326 -0.24898099899291992 
vt 1.3552424907684326 -0.05832785740494728 
vt 1.062598705291748 -0.24898099899291992 
vt 1.062598705291748 -0.05832785740494728 
vt 1.870470643043518 -0.24898099899291992 
vt 1.870470643043518 -0.05832785740494728 
vt 1.6778074502944946 -0.24898099899291992 
vt 1.6778074502944946 -0.05832785740494728 
vt 2.9374163150787354 -0.24898099899291992 
vt 2.9374163150787354 -0.05832785740494728 
vt 2.644772529602051 -0.24898099899291992 
vt 2.644772529602051 -0.05832785740494728 
vt 2.3222076892852783 -0.24898099899291992 
vt 2.3222076892852783 -0.05832785740494728 
vt 2.129544258117676 -0.24898099899291992 
vt 2.129544258117676 -0.05832785740494728 
vt 0.34098726511001587 1.6777671575546265 
vt 0.34098726511001587 1.8705053329467773 
vt 0.0483434833586216 1.6777671575546265 
vt 0.0483434833586216 1.8705053329467773 
vt 0.34098726511001587 -0.24898099899291992 
vt 0.34098726511001587 -0.05832785740494728 
vt 0.0483434833586216 -0.24898099899291992 
vt 0.0483434833586216 -0.05832785740494728 
vt 1.870470643043518 -0.24898099899291992 
vt 1.870470643043518 -0.05832785740494728 
vt 1.6778074502944946 -0.24898099899291992 
vt 1.6778074502944946 -0.05832785740494728 
vt 3.951671600341797 -0.24898099899291992 
vt 3.951671600341797 -0.05832785740494728 
vt 3.6590278148651123 -0.24898099899291992 
vt 3.6590278148651123 -0.05832785740494728 
vt 2.3222076892852783 -0.24898099899291992 
vt 2.3222076892852783 -0.05832785740494728 
vt 2.129544258117676 -0.24898099899291992 
vt 2.129544258117676 -0.05832785740494728 
vt -0.391279011964798 2.721599817276001 
vt -0.391279011964798 2.196601152420044 
vt 2.046494722366333 2.721599817276001 
vt 2.046494722366333 2.196601152420044 
vt 4.391294002532959 -0.24898099899291992 
vt 4.391294002532959 0.12788306176662445 
vt 1.9535201787948608 -0.24898099899291992 
vt 1.9535201787948608 0.12788306176662445 
vt 1.803330421447754 -0.24898099899291992 
vt 1.803330421447754 0.12788306176662445 
vt 1.2784690856933594 -0.24898099899291992 
vt 1.2784690856933594 0.12788306176662445 
vt 2.046494722366333 -0.24898099899291992 
vt 2.046494722366333 0.12788306176662445 
vt -0.391279011964798 -0.24898099899291992 
vt -0.391279011964798 0.12788306176662445 
vt 2.721545934677124 -0.24898099899291992 
vt 2.721545934677124 0.12788306176662445 
vt 2.1966845989227295 -0.24898099899291992 
vt 2.1966845989227295 0.12788306176662445 
s on 
f 1/1/1 2/2/2 3/3/3 
f 2/2/2 4/4/4 3/3/3 
f 3/3/3 4/4/4 4/4/4 
f 4/4/4 5/5/5 4/4/4 
f 4/4/4 5/5/5 5/5/5 
f 5/5/5 6/6/6 5/5/5 
f 5/5/5 6/6/6 7/7/7 
f 6/6/6 8/8/8 7/7/7 
f 7/7/7 8/8/8 8/8/8 
f 8/8/8 9/9/9 8/8/8 
f 8/8/8 9/9/9 9/9/9 
f 9/9/9 10/10/10 9/9/9 
f 9/9/9 10/10/10 11/11/11 
f 10/10/10 12/12/12 11/11/11 
f 11/11/11 12/12/12 12/12/12 
f 12/12/12 13/13/13 12/12/12 
f 12/12/12 13/13/13 13/13/13 
f 13/13/13 14/14/14 13/13/13 
f 13/13/13 14/14/14 15/15/15 
f 14/14/14 16/16/16 15/15/15 
f 15/15/15 16/16/16 16/16/16 
f 16/16/16 17/17/17 16/16/16 
f 16/16/16 17/17/17 17/17/17 
f 17/17/17 18/18/18 17/17/17 
f 17/17/17 18/18/18 19/19/19 
f 18/18/18 20/20/20 19/19/19 
f 19/19/19 20/20/20 20/20/20 
f 20/20/20 21/21/21 20/20/20 
f 20/20/20 21/21/21 21/21/21 
f 21/21/21 22/22/22 21/21/21 
f 21/21/21 22/22/22 23/23/23 
f 22/22/22 24/24/24 23/23/23 
f 23/23/23 24/24/24 24/24/24 
f 24/24/24 25/25/25 24/24/24 
f 24/24/24 25/25/25 25/25/25 
f 25/25/25 26/26/26 25/25/25 
f 25/25/25 26/26/26 27/27/27 
f 26/26/26 28/28/28 27/27/27 
f 27/27/27 28/28/28 28/28/28 
f 28/28/28 29/29/29 28/28/28 
f 28/28/28 29/29/29 29/29/29 
f 29/29/29 30/30/30 29/29/29 
f 29/29/29 30/30/30 31/31/31 
f 30/30/30 32/32/32 31/31/31 
f 31/31/31 32/32/32 32/32/32 
f 32/32/32 33/33/33 32/32/32 
f 32/32/32 33/33/33 33/33/33 
f 33/33/33 34/34/34 33/33/33 
f 33/33/33 34/34/34 35/35/35 
f 34/34/34 36/36/36 35/35/35 
f 35/35/35 36/36/36 36/36/36 
f 36/36/36 37/37/37 36/36/36 
f 36/36/36 37/37/37 37/37/37 
f 37/37/37 38/38/38 37/37/37 
f 37/37/37 38/38/38 39/39/39 
f 38/38/38 40/40/40 39/39/39 
f 39/39/39 40/40/40 40/40/40 
f 40/40/40 41/41/41 40/40/40 
f 40/40/40 41/41/41 41/41/41 
f 41/41/41 42/42/42 41/41/41 
f 41/41/41 42/42/42 43/43/43 
f 42/42/42 44/44/44 43/43/43 
f 43/43/43 44/44/44 44/44/44 
f 44/44/44 45/45/45 44/44/44 
f 44/44/44 45/45/45 45/45/45 
f 45/45/45 46/46/46 45/45/45 
f 45/45/45 46/46/46 47/47/47 
f 46/46/46 48/48/48 47/47/47 
f 47/47/47 48/48/48 48/48/48 
f 48/48/48 49/49/49 48/48/48 
f 48/48/48 49/49/49 49/49/49 
f 49/49/49 50/50/50 49/49/49 
f 49/49/49 50/50/50 51/51/51 
f 50/50/50 52/52/52 51/51/51 
f 51/51/51 52/52/52 52/52/52 
f 52/52/52 53/53/53 52/52/52 
f 52/52/52 53/53/53 53/53/53 
f 53/53/53 54/54/54 53/53/53 
f 53/53/53 54/54/54 55/55/55 
f 54/54/54 56/56/56 55/55/55 
f 55/55/55 56/56/56 56/56/56 
f 56/56/56 57/57/57 56/56/56 
f 56/56/56 57/57/57 57/57/57 
f 57/57/57 58/58/58 57/57/57 
f 57/57/57 58/58/58 59/59/59 
f 58/58/58 60/60/60 59/59/59 
f 59/59/59 60/60/60 60/60/60 
f 60/60/60 61/61/61 60/60/60 
f 60/60/60 61/61/61 61/61/61 
f 61/61/61 62/62/62 61/61/61 
f 61/61/61 62/62/62 63/63/63 
f 62/62/62 64/64/64 63/63/63 
f 63/63/63 64/64/64 64/64/64 
f 64/64/64 65/65/65 64/64/64 
f 64/64/64 65/65/65 65/65/65 
f 65/65/65 66/66/66 65/65/65 
f 65/65/65 66/66/66 67/67/67 
f 66/66/66 68/68/68 67/67/67 
f 67/67/67 68/68/68 68/68/68 
f 68/68/68 69/69/69 68/68/68 
f 68/68/68 69/69/69 69/69/69 
f 69/69/69 70/70/70 69/69/69 
f 69/69/69 70/70/70 71/71/71 
f 70/70/70 72/72/72 71/71/71 
f 71/71/71 72/72/72 72/72/72 
f 72/72/72 73/73/73 72/72/72 
f 72/72/72 73/73/73 73/73/73 
f 73/73/73 74/74/74 73/73/73 
f 73/73/73 74/74/74 75/75/75 
f 74/74/74 76/76/76 75/75/75 
f 75/75/75 76/76/76 76/76/76 
f 76/76/76 77/77/77 76/76/76 
f 76/76/76 77/77/77 77/77/77 
f 77/77/77 78/78/78 77/77/77 
f 77/77/77 78/78/78 79/79/79 
f 78/78/78 80/80/80 79/79/79 

